<svg width="400" height="157" viewBox="0 0 400 157" fill="none" xmlns="http://www.w3.org/2000/svg">
<path d="M214.563 141.534H189.699V124.757L329.903 29.9204L355.115 46.935L214.563 141.534Z" fill="#6B7280" fill-opacity="0.6"/>
<path d="M368.417 37.569L343.228 20.5727L357.541 11.2204C359.751 9.7197 363.142 8.89611 366.284 8.89611C367.83 8.89339 369.362 9.09738 370.792 9.49632C372.221 9.89526 373.519 10.4812 374.611 11.2204L382.296 16.406C383.387 17.1418 384.251 18.016 384.839 18.9782C385.427 19.9404 385.727 20.9716 385.722 22.0124C385.722 24.1476 384.497 26.4201 382.278 27.9178L368.417 37.569Z" fill="#6B7280" fill-opacity="0.6"/>
<path d="M48.71 128C47.4967 128 46.4567 127.61 45.59 126.83C44.7667 126.007 44.225 124.685 43.965 122.865C43.7483 121.002 43.64 115.477 43.64 106.29C43.64 97.06 43.7917 91.0367 44.095 88.22C44.4417 84.58 45.98 82.7167 48.71 82.63C51.83 82.5433 64.765 82.5 87.515 82.5C90.0717 82.5 91.35 84.125 91.35 87.375C91.35 89.9317 90.2233 91.21 87.97 91.21H73.67C72.76 91.21 72.0233 91.5133 71.46 92.12C70.94 92.7267 70.68 93.5067 70.68 94.46V99.14C70.68 100.44 71.265 101.09 72.435 101.09H84.265C84.9583 101.09 85.4783 101.155 85.825 101.285C86.215 101.415 86.5617 101.805 86.865 102.455C87.1683 103.062 87.32 104.08 87.32 105.51C87.32 106.94 87.06 107.893 86.54 108.37C86.0633 108.847 85.2617 109.085 84.135 109.085H73.54C72.4567 109.085 71.6983 109.367 71.265 109.93C70.875 110.45 70.68 111.273 70.68 112.4V115.585C70.68 117.448 71.5683 118.38 73.345 118.38H89.53C90.31 118.38 91.0033 118.618 91.61 119.095C92.2167 119.528 92.52 120.525 92.52 122.085C92.52 123.602 92.1517 124.967 91.415 126.18C90.6783 127.393 89.8117 128 88.815 128H48.71Z" fill="#E0F2FE"/>
<path d="M114.6 101.75C125.467 101.75 130.95 105.283 131.05 112.35C131.117 115.35 131.15 118.1 131.15 120.6C131.15 123.1 131.133 124.783 131.1 125.65C131.067 126.517 130.833 127.15 130.4 127.55C130 127.917 129.2 128.1 128 128.1H117.4C116.333 128.1 115.6 127.917 115.2 127.55C114.8 127.15 114.583 126.567 114.55 125.8C114.55 125.767 114.533 125.717 114.5 125.65C114.5 125.55 114.5 125.467 114.5 125.4C112.3 127.667 109.3 128.8 105.5 128.8C102.867 128.8 100.617 128.15 98.75 126.85C96.9167 125.517 96 123.7 96 121.4C96 119.067 96.65 117.217 97.95 115.85C99.2833 114.45 100.85 113.5 102.65 113C104.483 112.5 106.433 112.25 108.5 112.25C110.6 112.25 112.65 112.45 114.65 112.85V112.65C114.65 110.983 114.317 109.783 113.65 109.05C113.017 108.317 111.967 107.95 110.5 107.95C109.067 107.95 107.867 108.083 106.9 108.35C105.933 108.583 105.2 108.833 104.7 109.1C103.333 109.9 102.383 110.3 101.85 110.3C101.317 110.3 100.833 110.05 100.4 109.55C100 109.05 99.8 108.283 99.8 107.25C99.8 106.183 99.9833 105.45 100.35 105.05C100.75 104.65 101.367 104.25 102.2 103.85C105.1 102.45 109.233 101.75 114.6 101.75ZM112.25 122.2C113.717 122.2 114.467 121.917 114.5 121.35C114.567 120.25 114.6 118.8 114.6 117C114.6 116.3 114.067 115.95 113 115.95C111.933 115.95 111.067 116.217 110.4 116.75C109.733 117.25 109.4 118 109.4 119C109.4 120 109.667 120.783 110.2 121.35C110.767 121.917 111.45 122.2 112.25 122.2ZM148.137 121.45C148.137 120.517 147.737 119.783 146.937 119.25C146.17 118.717 145.22 118.317 144.087 118.05C142.987 117.75 141.87 117.417 140.737 117.05C139.603 116.65 138.637 115.983 137.837 115.05C137.07 114.083 136.687 112.817 136.687 111.25C136.687 105.05 141.503 101.95 151.137 101.95C155.27 101.95 158.587 102.65 161.087 104.05C161.887 104.483 162.453 104.9 162.787 105.3C163.12 105.667 163.287 106.333 163.287 107.3C163.287 108.267 163.087 109 162.687 109.5C162.32 109.967 161.937 110.2 161.537 110.2C161.17 110.2 160.337 109.833 159.037 109.1C157.77 108.333 156.453 107.933 155.087 107.9C153.987 107.9 153.437 108.45 153.437 109.55C153.437 110.283 153.82 110.867 154.587 111.3C155.353 111.733 156.287 112.117 157.387 112.45C158.487 112.75 159.587 113.133 160.687 113.6C161.787 114.033 162.72 114.783 163.487 115.85C164.253 116.883 164.637 118.2 164.637 119.8C164.637 126 159.82 129.1 150.187 129.1C145.487 129.1 141.653 128.417 138.687 127.05C137.787 126.683 137.137 126.317 136.737 125.95C136.337 125.55 136.137 124.85 136.137 123.85C136.137 122.817 136.337 122.083 136.737 121.65C137.17 121.217 137.52 121 137.787 121C138.087 121 139.053 121.367 140.687 122.1C142.32 122.833 143.97 123.2 145.637 123.2C147.303 123.2 148.137 122.617 148.137 121.45ZM173.256 129.95C177.656 129.95 179.856 129.3 179.856 128C179.856 127.567 179.59 126.917 179.056 126.05C176.623 122.25 173.023 115.7 168.256 106.4C167.89 105.633 167.706 105.033 167.706 104.6C167.706 103.233 168.39 102.55 169.756 102.55H180.756C181.823 102.55 182.623 102.717 183.156 103.05C183.723 103.383 184.256 104.017 184.756 104.95L189.406 113.65C189.606 114.05 189.89 114.25 190.256 114.25C190.623 114.25 190.906 114.05 191.106 113.65L195.906 103.7C196.206 103.033 196.556 102.667 196.956 102.6C197.09 102.6 197.34 102.583 197.706 102.55H202.956C203.423 102.55 203.756 102.767 203.956 103.2C204.023 103.4 204.056 103.633 204.056 103.9C204.056 104.133 203.923 104.5 203.656 105C203.423 105.467 202.173 108.117 199.906 112.95C197.64 117.783 195.906 121.333 194.706 123.6C193.54 125.867 192.706 127.417 192.206 128.25C191.74 129.083 191.106 130.067 190.306 131.2C189.506 132.367 188.74 133.233 188.006 133.8C187.273 134.4 186.356 135 185.256 135.6C183.323 136.633 180.84 137.15 177.806 137.15C174.806 137.15 172.823 136.883 171.856 136.35C170.89 135.85 170.406 134.733 170.406 133C170.406 132.167 170.556 131.45 170.856 130.85C171.19 130.25 171.623 129.95 172.156 129.95H173.256ZM228.235 113.5L228.185 120C228.185 120.3 228.285 120.567 228.485 120.8C228.685 121 228.952 121.1 229.285 121.1C231.318 121.1 232.985 120.7 234.285 119.9C235.618 119.1 236.285 117.85 236.285 116.15C236.285 114.417 235.602 113.217 234.235 112.55C233.135 112.017 231.935 111.75 230.635 111.75C230.302 111.75 229.968 111.767 229.635 111.8C228.702 111.867 228.235 112.433 228.235 113.5ZM228.185 99.75L228.235 103.85C228.235 104.483 228.618 104.8 229.385 104.8C232.752 104.8 234.435 103.85 234.435 101.95C234.435 99.75 232.935 98.65 229.935 98.65C229.735 98.65 229.552 98.65 229.385 98.65C228.585 98.65 228.185 99.0167 228.185 99.75ZM211.835 93.05C215.968 92.9167 221.135 92.85 227.335 92.85C233.535 92.85 237.818 92.9167 240.185 93.05C242.585 93.15 244.702 94.0667 246.535 95.8C248.368 97.5333 249.285 99.5333 249.285 101.8C249.285 104.567 248.085 106.6 245.685 107.9C245.452 108.033 245.335 108.2 245.335 108.4C245.335 108.567 245.452 108.683 245.685 108.75C247.418 109.217 248.868 110.217 250.035 111.75C251.235 113.283 251.835 115.1 251.835 117.2C251.835 119.833 250.818 122.217 248.785 124.35C246.752 126.483 243.635 127.65 239.435 127.85C235.235 128.017 232.202 128.1 230.335 128.1C228.468 128.1 222.235 128.05 211.635 127.95C210.668 127.95 209.885 127.65 209.285 127.05C208.685 126.417 208.335 125.7 208.235 124.9C207.968 121.967 207.835 117.7 207.835 112.1C207.835 106.467 207.952 101.667 208.185 97.7C208.285 96.0667 208.568 94.9 209.035 94.2C209.502 93.4667 210.435 93.0833 211.835 93.05ZM259.967 91.45H269.567C270.667 91.45 271.4 91.7167 271.767 92.25C272.133 92.75 272.367 93.5667 272.467 94.7C272.667 98.7 272.767 104.233 272.767 111.3C272.767 118.333 272.633 123.183 272.367 125.85C272.3 126.383 272.033 126.867 271.567 127.3C271.1 127.733 270.267 127.983 269.067 128.05C267.9 128.15 266.517 128.2 264.917 128.2C263.317 128.2 261.883 128.167 260.617 128.1C258.45 127.933 257.317 127.183 257.217 125.85C256.883 122.95 256.717 117.817 256.717 110.45C256.717 103.05 256.85 97.8 257.117 94.7C257.217 93.5667 257.433 92.75 257.767 92.25C258.133 91.7167 258.867 91.45 259.967 91.45ZM293.487 115.5C293.487 119.233 294.47 121.1 296.437 121.1C298.404 121.1 299.387 119.233 299.387 115.5C299.387 113.8 299.187 112.5 298.787 111.6C298.387 110.667 297.604 110.2 296.437 110.2C295.27 110.2 294.487 110.667 294.087 111.6C293.687 112.5 293.487 113.8 293.487 115.5ZM315.087 115.5C315.087 124.567 308.87 129.1 296.437 129.1C284.004 129.1 277.787 124.567 277.787 115.5C277.787 111.2 279.37 107.867 282.537 105.5C285.704 103.133 290.337 101.95 296.437 101.95C302.537 101.95 307.17 103.133 310.337 105.5C313.504 107.867 315.087 111.2 315.087 115.5ZM336.496 110.2C334.529 110.2 333.546 111.65 333.546 114.55C333.546 117.417 334.496 118.85 336.396 118.85C337.229 118.85 337.946 118.633 338.546 118.2C339.179 117.733 339.496 117.083 339.496 116.25V112.8C339.496 112 339.179 111.367 338.546 110.9C337.946 110.433 337.262 110.2 336.496 110.2ZM355.296 104.95L355.396 120.3C355.396 123.633 355.379 126.167 355.346 127.9C355.312 129.633 354.812 131.2 353.846 132.6C352.879 134 351.562 135.1 349.896 135.9C346.629 137.4 342.279 138.15 336.846 138.15C331.412 138.15 326.962 137.417 323.496 135.95C322.662 135.583 322.046 135.183 321.646 134.75C321.279 134.35 321.096 133.617 321.096 132.55C321.096 131.517 321.296 130.75 321.696 130.25C322.129 129.75 322.629 129.5 323.196 129.5C323.762 129.5 324.462 129.7 325.296 130.1C327.862 131.367 330.429 132 332.996 132C334.162 132 335.212 131.867 336.146 131.6C337.079 131.367 337.896 130.867 338.596 130.1C339.329 129.333 339.696 128.35 339.696 127.15L339.646 124.5C339.646 124.167 339.546 124 339.346 124C339.246 124 339.146 124.05 339.046 124.15C336.379 126.717 333.446 128 330.246 128C327.046 128 324.362 126.983 322.196 124.95C320.062 122.917 318.996 119.7 318.996 115.3C318.996 110.9 320.262 107.583 322.796 105.35C325.329 103.083 328.429 101.95 332.096 101.95C335.762 101.95 338.479 103.1 340.246 105.4C340.279 104.533 340.596 103.867 341.196 103.4C341.796 102.933 342.462 102.667 343.196 102.6C343.929 102.533 345.262 102.5 347.196 102.5L352.496 102.6C353.129 102.6 353.746 102.833 354.346 103.3C354.979 103.733 355.296 104.283 355.296 104.95Z" fill="#E0F2FE"/>
<line x1="1" y1="140.361" x2="186.144" y2="140.361" stroke="#CDDEE9" stroke-opacity="0.81"/>
<line y1="-1" x2="185.15" y2="-1" transform="matrix(0.999967 0.0080676 0.0126455 -0.99992 1 137)" stroke="#E0F2FE" stroke-width="2"/>
</svg>
